<svg
    xmlns="http://www.w3.org/2000/svg"
    viewBox="0 0 32 32"
    width="32"
    height="32"
>
  <rect width="32" height="32" fill="#071b65" />
  <polygon points="0,0 5,0 32,27 32,32 27,32 0,5" fill="#fff" />
  <polygon points="32,0 32,5 5,32 0,32 0,27 27,0" fill="#fff" />
  <polygon points="0,0 2,0 32,30 32,32 30,32 0,2" fill="#b92932" />
  <polygon points="32,0 32,2 2,32 0,32 0,30 30,0" fill="#b92932" />
  <rect x="13" width="6" height="32" fill="#fff" />
  <rect y="13" width="32" height="6" fill="#fff" />
  <rect x="14" width="4" height="32" fill="#b92932" />
  <rect y="14" width="32" height="4" fill="#b92932" />
</svg>
